<svg viewBox="0 0 1613 360" fill="none" xmlns="http://www.w3.org/2000/svg">
<path d="M225.636 65.792H137.577L165.224 36.4278C168.019 33.4644 167.879 28.7949 164.904 26.0055C161.93 23.2161 157.277 23.3508 154.482 26.3198L120.084 62.8736L79.0735 25.8989C76.0484 23.1769 71.3789 23.4182 68.6568 26.4433C65.9348 29.4684 66.1761 34.1323 69.2012 36.8543L101.31 65.8032H7.38034C3.30011 65.8032 0 69.109 0 73.1836V254.544C0 258.624 3.30572 261.913 7.38034 261.913H225.636C229.728 261.913 233 258.613 233 254.544V73.178C233.011 69.0977 229.7 65.792 225.636 65.792ZM218.256 247.163H14.7551V80.5527H218.262L218.256 247.163Z" fill="white"/>
<path d="M48.845 232.419H184.177C199.292 232.419 211.617 220.044 211.617 204.829V116.736C211.617 101.526 199.32 89.1566 184.177 89.1566H48.845C33.7139 89.1566 21.4114 101.526 21.4114 116.736V204.823C21.4114 220.038 33.7139 232.419 48.845 232.419ZM36.1665 116.736C36.1665 109.664 41.8519 103.912 48.8394 103.912H184.166C191.159 103.912 196.85 109.664 196.85 116.736V204.823C196.85 211.895 191.159 217.636 184.166 217.636H48.8394C41.8575 217.636 36.1665 211.906 36.1665 204.823V116.736Z" fill="white"/>
<path d="M213.334 262.53H19.6716C15.5969 262.53 12.2968 265.841 12.2968 269.91C12.2968 273.979 15.6026 277.274 19.6716 277.274H213.334C217.414 277.274 220.703 273.974 220.703 269.91C220.72 265.841 217.414 262.53 213.334 262.53Z" fill="white"/>
<path d="M306.1 90H271.6V60H373.6V90H339.1V270H306.1V90ZM389.577 60H422.577V145.5H457.977V60H490.977V270H457.977V175.5H422.577V270H389.577V60ZM515.554 60H605.554V90H548.554V145.5H593.854V175.5H548.554V240H605.554V270H515.554V60ZM616.738 60H648.538L663.238 221.4H663.838L679.438 60H715.438L731.038 221.4H731.638L746.338 60H774.838L753.538 270H712.438L697.438 128.4H696.838L681.838 270H638.038L616.738 60ZM812.929 60H857.629L891.829 270H858.829L852.829 228.3V228.9H815.329L809.329 270H778.729L812.929 60ZM848.929 200.4L834.229 96.6H833.629L819.229 200.4H848.929ZM919.87 90H885.37V60H987.37V90H952.87V270H919.87V90ZM1048.68 273C1032.88 273 1020.78 268.5 1012.38 259.5C1004.18 250.5 1000.08 237.8 1000.08 221.4V108.6C1000.08 92.2 1004.18 79.5 1012.38 70.5C1020.78 61.5 1032.88 57 1048.68 57C1064.48 57 1076.48 61.5 1084.68 70.5C1093.08 79.5 1097.28 92.2 1097.28 108.6V130.8H1066.08V106.5C1066.08 93.5 1060.58 87 1049.58 87C1038.58 87 1033.08 93.5 1033.08 106.5V223.8C1033.08 236.6 1038.58 243 1049.58 243C1060.58 243 1066.08 236.6 1066.08 223.8V191.7H1097.28V221.4C1097.28 237.8 1093.08 250.5 1084.68 259.5C1076.48 268.5 1064.48 273 1048.68 273ZM1117.02 60H1150.02V145.5H1185.42V60H1218.42V270H1185.42V175.5H1150.02V270H1117.02V60ZM1243 60H1276V240H1330.3V270H1243V60ZM1346.12 60H1379.12V270H1346.12V60ZM1446.74 273C1430.74 273 1418.64 268.5 1410.44 259.5C1402.24 250.3 1398.14 237.2 1398.14 220.2V208.2H1429.34V222.6C1429.34 236.2 1435.04 243 1446.44 243C1452.04 243 1456.24 241.4 1459.04 238.2C1462.04 234.8 1463.54 229.4 1463.54 222C1463.54 213.2 1461.54 205.5 1457.54 198.9C1453.54 192.1 1446.14 184 1435.34 174.6C1421.74 162.6 1412.24 151.8 1406.84 142.2C1401.44 132.4 1398.74 121.4 1398.74 109.2C1398.74 92.6 1402.94 79.8 1411.34 70.8C1419.74 61.6 1431.94 57 1447.94 57C1463.74 57 1475.64 61.6 1483.64 70.8C1491.84 79.8 1495.94 92.8 1495.94 109.8V118.5H1464.74V107.7C1464.74 100.5 1463.34 95.3 1460.54 92.1C1457.74 88.7 1453.64 87 1448.24 87C1437.24 87 1431.74 93.7 1431.74 107.1C1431.74 114.7 1433.74 121.8 1437.74 128.4C1441.94 135 1449.44 143 1460.24 152.4C1474.04 164.4 1483.54 175.3 1488.74 185.1C1493.94 194.9 1496.54 206.4 1496.54 219.6C1496.54 236.8 1492.24 250 1483.64 259.2C1475.24 268.4 1462.94 273 1446.74 273ZM1541.26 90H1506.76V60H1608.76V90H1574.26V270H1541.26V90Z" fill="white"/>
</svg>
